<mxfile host="app.diagrams.net" modified="2021-02-04T05:03:31.175Z" agent="5.0 (Windows NT 10.0; Win64; x64) AppleWebKit/537.36 (KHTML, like Gecko) Chrome/88.0.4324.146 Safari/537.36" etag="cTEQi3ZLHTOX7Z2xpLjV" version="14.2.9" type="github">
  <diagram id="XhSW6hmEcI-76zrVA9f5" name="Page-1">
    <mxGraphModel dx="6463" dy="3377" grid="1" gridSize="10" guides="1" tooltips="1" connect="1" arrows="1" fold="1" page="0" pageScale="1" pageWidth="291" pageHeight="413" background="#ffffff" math="0" shadow="0">
      <root>
        <mxCell id="0" />
        <mxCell id="1" parent="0" />
        <mxCell id="FTn2St-VDgIkAUPcDxeP-478" value="" style="rounded=1;whiteSpace=wrap;html=1;fillColor=#fff2cc;strokeColor=#d6b656;" vertex="1" parent="1">
          <mxGeometry x="-2400" y="-990" width="2320" height="1350" as="geometry" />
        </mxCell>
        <mxCell id="FTn2St-VDgIkAUPcDxeP-479" value="&lt;font style=&quot;font-size: 100px&quot;&gt;运行时数据区&lt;/font&gt;" style="text;html=1;strokeColor=none;fillColor=none;align=center;verticalAlign=middle;whiteSpace=wrap;rounded=0;" vertex="1" parent="1">
          <mxGeometry x="-1740" y="-940" width="830" height="120" as="geometry" />
        </mxCell>
        <mxCell id="FTn2St-VDgIkAUPcDxeP-481" value="" style="rounded=0;whiteSpace=wrap;html=1;fillColor=#f8cecc;strokeColor=#b85450;" vertex="1" parent="1">
          <mxGeometry x="-2300" y="-730" width="760" height="350" as="geometry" />
        </mxCell>
        <mxCell id="FTn2St-VDgIkAUPcDxeP-482" value="&lt;font style=&quot;font-size: 70px&quot;&gt;&lt;b&gt;方法区&lt;br&gt;Method Area&lt;/b&gt;&lt;br&gt;&lt;/font&gt;" style="text;html=1;strokeColor=none;fillColor=none;align=center;verticalAlign=middle;whiteSpace=wrap;rounded=0;" vertex="1" parent="1">
          <mxGeometry x="-2160" y="-650" width="430" height="160" as="geometry" />
        </mxCell>
        <mxCell id="FTn2St-VDgIkAUPcDxeP-483" value="" style="rounded=0;whiteSpace=wrap;html=1;fillColor=#f8cecc;strokeColor=#b85450;" vertex="1" parent="1">
          <mxGeometry x="-2300" y="-220" width="760" height="350" as="geometry" />
        </mxCell>
        <mxCell id="FTn2St-VDgIkAUPcDxeP-484" value="&lt;font style=&quot;font-size: 70px&quot;&gt;&lt;b&gt;堆&lt;br&gt;&lt;/b&gt;Heap&amp;nbsp;&lt;br&gt;&lt;/font&gt;" style="text;html=1;strokeColor=none;fillColor=none;align=center;verticalAlign=middle;whiteSpace=wrap;rounded=0;" vertex="1" parent="1">
          <mxGeometry x="-2160" y="-125" width="430" height="160" as="geometry" />
        </mxCell>
        <mxCell id="FTn2St-VDgIkAUPcDxeP-485" value="" style="rounded=0;whiteSpace=wrap;html=1;fillColor=#d5e8d4;strokeColor=#82b366;" vertex="1" parent="1">
          <mxGeometry x="-1450" y="-720" width="550" height="350" as="geometry" />
        </mxCell>
        <mxCell id="FTn2St-VDgIkAUPcDxeP-486" value="" style="rounded=0;whiteSpace=wrap;html=1;fillColor=#d5e8d4;strokeColor=#82b366;" vertex="1" parent="1">
          <mxGeometry x="-870" y="-720" width="740" height="350" as="geometry" />
        </mxCell>
        <mxCell id="FTn2St-VDgIkAUPcDxeP-487" value="" style="rounded=0;whiteSpace=wrap;html=1;fillColor=#d5e8d4;strokeColor=#82b366;" vertex="1" parent="1">
          <mxGeometry x="-1430" y="-230" width="920" height="350" as="geometry" />
        </mxCell>
        <mxCell id="FTn2St-VDgIkAUPcDxeP-488" value="&lt;font style=&quot;font-size: 70px&quot;&gt;&lt;b&gt;虚拟机栈&lt;br&gt;&lt;/b&gt;VM STACK&lt;br&gt;&lt;/font&gt;" style="text;html=1;strokeColor=none;fillColor=none;align=center;verticalAlign=middle;whiteSpace=wrap;rounded=0;" vertex="1" parent="1">
          <mxGeometry x="-1390" y="-650" width="430" height="160" as="geometry" />
        </mxCell>
        <mxCell id="FTn2St-VDgIkAUPcDxeP-489" value="&lt;font style=&quot;font-size: 70px&quot;&gt;&lt;b&gt;本地方法栈&lt;br&gt;&lt;/b&gt;Native Method Stack&lt;br&gt;&lt;/font&gt;" style="text;html=1;strokeColor=none;fillColor=none;align=center;verticalAlign=middle;whiteSpace=wrap;rounded=0;" vertex="1" parent="1">
          <mxGeometry x="-845" y="-650" width="690" height="160" as="geometry" />
        </mxCell>
        <mxCell id="FTn2St-VDgIkAUPcDxeP-491" value="&lt;font&gt;&lt;b style=&quot;font-size: 70px&quot;&gt;程序计数器&lt;br&gt;&lt;/b&gt;&lt;font style=&quot;font-size: 50px&quot;&gt;Program Counter Register&lt;/font&gt;&lt;br&gt;&lt;/font&gt;" style="text;html=1;strokeColor=none;fillColor=none;align=center;verticalAlign=middle;whiteSpace=wrap;rounded=0;" vertex="1" parent="1">
          <mxGeometry x="-1340" y="-130" width="740" height="160" as="geometry" />
        </mxCell>
      </root>
    </mxGraphModel>
  </diagram>
</mxfile>
